<svg width="1058" height="785" viewBox="0 0 1058 785" fill="none" xmlns="http://www.w3.org/2000/svg">
<g id="undraw_Ride_a_bicycle_2yok 1" clip-path="url(#clip0)">
<g id="Group 4">
<path id="Vector" d="M209.73 115.43C204.25 122.08 202.14 131.43 199.78 140.22C180.78 211.06 133.96 268.04 80.6398 308.74C58.0598 325.98 30.5698 349.1 35.5098 380.01C38.1698 396.61 49.8398 408.83 58.5098 422.35C76.6998 450.66 82.5998 489.14 73.9298 523.03C64.0698 561.59 36.5098 597.57 45.0398 636.56C50.2998 660.56 68.1598 677.64 85.3298 692.32C112.116 715.207 139.756 736.647 168.25 756.64C187.35 770.04 207.67 783.08 229.93 784.78C249.53 786.28 268.73 778.83 287.34 771.48C303.6 765.05 320.27 758.36 333.4 745.48C341.97 737.07 348.8 726.22 358.32 719.34C380.68 703.18 409.4 713.42 435.04 720.34C495.54 736.58 560.29 730.65 617.86 703.6C706.17 662.1 773.48 574.95 859.86 528.19C897 508.08 937.4 495.6 971.79 469.7C991.165 454.954 1007.81 436.936 1020.99 416.46C1046.99 376.35 1061.05 325.21 1056.99 275.15C1052.93 225.09 1030.18 176.85 994.45 148.59C956.2 118.34 907.89 112.69 864.37 94.5302C819.43 75.7702 779.45 43.5302 734.94 23.4002C698.924 7.15686 659.728 -0.816947 620.228 0.0638277C580.728 0.944602 541.926 10.6576 506.67 28.4902C458.23 52.9902 409.13 110.15 355.18 114.49C316.74 117.49 239.75 79.0102 209.73 115.43Z" fill="url(#paint0_linear)"/>
</g>
<g id="leftwheel">
<path id="Vector_2" d="M255.23 716.989L248.96 619.049L248.83 618.839L242.51 621.039L213.43 705.889L167.18 673.099L240.85 619.689L240.92 619.479L241.34 619.329L246.09 615.879L168.85 572.569L149.93 593.369L152.93 612.869L241.75 614.489V616.489L151.27 614.869L147.85 592.729L173.75 564.269L212.5 519.069L213.19 520.939L221.39 511.939L251.85 517.399V516.189L253.85 516.249V517.759L299.21 525.879L256.92 610.489L250.75 614.959V615.459V616.019L348.55 581.939L336.94 673.149L253.94 620.279L251.02 618.639L299.96 697.519L255.23 716.989ZM251.23 622.649L257.08 714.029L297.13 696.649L251.23 622.649ZM170.65 673.079L212.44 702.709L239.78 622.969L170.65 673.079ZM252.97 617.419L255.06 618.589L335.41 669.789L346.21 584.919L252.97 617.419ZM245.87 610.219L248.38 614.269L248.82 613.949L251.82 519.419L222.08 514.099L213.92 523.099L245.87 610.219ZM170.45 571.159L245.29 613.159L243.99 611.029L212.41 524.759L175.22 565.629L170.45 571.159ZM253.85 519.769L250.85 612.489L255.37 609.209L296.28 527.389L253.85 519.769Z" fill="#535461"/>
<path id="Vector_3" d="M364.92 589.949C360.91 572.13 352.79 555.494 341.21 541.369C336.911 536.12 332.171 531.249 327.04 526.809C307.314 509.778 282.491 499.779 256.467 498.38C230.443 496.982 204.692 504.264 183.254 519.084C161.816 533.904 145.906 555.422 138.02 580.261C130.134 605.101 130.719 631.856 139.683 656.327C148.647 680.798 165.482 701.601 187.547 715.469C209.612 729.338 235.657 735.488 261.595 732.953C287.533 730.419 311.895 719.345 330.858 701.467C349.822 683.59 362.312 659.923 366.37 634.179C367.314 628.118 367.789 621.993 367.79 615.859C367.797 607.143 366.834 598.453 364.92 589.949ZM249.73 704.299C231.498 704.28 213.714 698.646 198.797 688.164C183.879 677.681 172.552 662.859 166.356 645.712C160.16 628.565 159.395 609.926 164.165 592.329C168.935 574.731 179.009 559.031 193.018 547.361C207.026 535.691 224.288 528.619 242.457 527.106C260.627 525.592 278.821 529.712 294.567 538.904C310.312 548.095 322.845 561.914 330.46 578.479C338.076 595.045 340.405 613.554 337.13 631.489C333.38 651.933 322.58 670.414 306.611 683.717C290.642 697.02 270.514 704.304 249.73 704.299V704.299Z" fill="#535461"/>
<path id="Vector_4" d="M249.73 628.27C256.805 628.27 262.54 622.535 262.54 615.46C262.54 608.386 256.805 602.65 249.73 602.65C242.655 602.65 236.92 608.386 236.92 615.46C236.92 622.535 242.655 628.27 249.73 628.27Z" fill="#535461"/>
</g>
<g id="rightweel">
<path id="Vector_5" d="M681.42 717.389L675.16 619.489L675.03 619.279L668.71 621.479L639.62 706.289L593.37 673.489L667.06 620.079L667.13 619.869L667.55 619.719L672.3 616.269L595.06 572.959L576.13 593.759L579.13 613.259L667.93 614.839V616.839L577.45 615.219L574.05 593.109L599.94 564.659L638.66 519.489L639.35 521.359L647.55 512.359L678.09 517.829V516.619L680.09 516.679V518.189L725.45 526.309L683.12 610.959L676.95 615.429V615.929V616.489L774.76 582.409L763.15 673.619L680.15 620.749L677.23 619.109L726.17 697.999L681.42 717.389ZM677.42 623.049L683.27 714.429L723.32 697.049L677.42 623.049ZM596.85 673.489L638.64 703.119L665.98 623.379L596.85 673.489ZM679.17 617.829L681.26 618.999L761.61 670.199L772.41 585.329L679.17 617.829ZM672.07 610.629L674.58 614.679L675.02 614.359L678.02 519.829L648.28 514.489L640.12 523.489L672.07 610.629ZM596.68 571.579L671.52 613.579L670.22 611.449L638.64 525.179L601.44 566.059L596.68 571.579ZM680.05 520.189L677.05 612.879L681.57 609.599L722.48 527.779L680.05 520.189Z" fill="#535461"/>
<path id="Vector_6" d="M676.33 498.609C665.716 498.598 655.15 500.024 644.92 502.849C639.644 504.304 634.477 506.132 629.46 508.319C602.73 519.907 581.247 540.996 569.167 567.508C557.087 594.019 555.269 624.068 564.065 651.843C572.86 679.617 591.644 703.143 616.782 717.868C641.92 732.593 671.627 737.472 700.154 731.561C728.682 725.65 754.004 709.368 771.221 685.866C788.438 662.364 796.327 633.312 793.362 604.329C790.396 575.347 776.787 548.494 755.168 528.966C733.548 509.437 705.454 498.621 676.32 498.609H676.33ZM675.93 704.699C655.649 704.691 635.981 697.746 620.192 685.017C604.404 672.287 593.445 654.54 589.135 634.722C584.825 614.905 587.424 594.209 596.5 576.072C605.577 557.936 620.584 543.449 639.03 535.019C643.722 532.872 648.594 531.141 653.59 529.849C665.802 526.68 678.549 526.147 690.983 528.287C703.417 530.427 715.253 535.191 725.703 542.261C736.153 549.331 744.977 558.546 751.588 569.292C758.199 580.038 762.446 592.069 764.046 604.584C765.646 617.099 764.562 629.811 760.866 641.875C757.17 653.938 750.948 665.076 742.612 674.548C734.277 684.019 724.02 691.607 712.524 696.806C701.028 702.005 688.557 704.696 675.94 704.699H675.93Z" fill="#535461"/>
<path id="Vector_7" d="M675.93 628.671C683.005 628.671 688.74 622.936 688.74 615.861C688.74 608.786 683.005 603.051 675.93 603.051C668.855 603.051 663.12 608.786 663.12 615.861C663.12 622.936 668.855 628.671 675.93 628.671Z" fill="#535461"/>
</g>
<g id="man on bike">
<path id="Vector_8" d="M387 554.302L344.293 512.158L330.947 525.682L373.654 567.826L387 554.302Z" fill="#6C63FF"/>
<path id="Vector_9" opacity="0.1" d="M387 554.302L344.293 512.158L330.947 525.682L373.654 567.826L387 554.302Z" fill="black"/>
<path id="Vector_10" d="M354.48 491.989C354.48 491.989 379.27 478.909 388.85 470.489C394.617 465.444 400.818 460.916 407.38 456.959L438.48 438.029L503.48 433.029L506.48 444.029C506.48 444.029 511.48 460.029 461.48 474.029C411.48 488.029 386.48 510.029 386.48 510.029C386.48 510.029 354.48 520.989 354.48 491.989Z" fill="#DB8B8B"/>
<path id="Vector_11" opacity="0.1" d="M389.13 507.861C387.36 509.211 386.48 509.991 386.48 509.991C386.48 509.991 354.48 520.991 354.48 491.991C354.48 491.991 356.03 491.171 358.48 489.801C360.955 493.831 364.423 497.16 368.551 499.469C372.679 501.779 377.33 502.991 382.06 502.991H385.45L389.13 507.861Z" fill="black"/>
<path id="Vector_12" opacity="0.05" d="M505.54 449.55C502.76 455.44 493.17 465.12 461.48 473.99C420.87 485.36 396.75 501.99 389.13 507.86C387.36 509.21 386.48 509.99 386.48 509.99C386.48 509.99 354.48 520.99 354.48 491.99C354.48 491.99 356.03 491.17 358.48 489.8C365.91 485.73 381.64 476.8 388.82 470.45C394.586 465.403 400.787 460.875 407.35 456.92L438.45 437.99L450.03 437.1L503.45 432.99L506.45 443.99C506.45 443.99 507.15 446.14 505.54 449.55Z" fill="black"/>
<path id="Vector_13" d="M354.98 485.49L328.48 502.99L406.08 567.99C406.08 567.99 417.48 560.99 411.48 552.99C411.48 552.99 391.48 535.99 390.48 511.99L384.48 503.99H381.09C375.358 503.991 369.767 502.211 365.089 498.897C360.412 495.583 356.88 490.899 354.98 485.49V485.49Z" fill="#ABB1D1"/>
<path id="Vector_14" opacity="0.1" d="M505.54 449.55C489.54 441.82 450.48 440.99 450.48 440.99L450.06 437.1L503.48 432.99L506.48 443.99C506.48 443.99 507.15 446.14 505.54 449.55Z" fill="black"/>
<path id="Vector_15" d="M450.48 438.99C450.48 438.99 497.48 439.99 509.48 449.99L503.48 328.99H438.48L450.48 438.99Z" fill="#ABB1D1"/>
<path id="Vector_16" opacity="0.05" d="M450.48 438.49C450.48 438.49 497.48 439.49 509.48 449.49L503.48 328.49H438.48L450.48 438.49Z" fill="black"/>
<path id="Vector_17" d="M488.24 364.95C488.24 364.95 605.89 360.95 608.29 376.16C610.69 391.37 490.64 384.96 490.64 384.96C490.64 384.96 481.04 375.35 488.24 364.95Z" fill="#535461"/>
<path id="Vector_18" opacity="0.05" d="M488.24 364.95C488.24 364.95 605.89 360.95 608.29 376.16C610.69 391.37 490.64 384.96 490.64 384.96C490.64 384.96 481.04 375.35 488.24 364.95Z" fill="black"/>
<path id="Vector_19" d="M393 425.779H372.19V606.659H393V425.779Z" fill="#6C63FF"/>
<path id="Vector_20" opacity="0.1" d="M393 425.77V439.7C386.08 440.6 379 441.17 372.19 441.39V425.77H393Z" fill="black"/>
<path id="Vector_21" d="M391.44 410.78C388.52 410.554 385.616 410.164 382.74 409.61C371.46 407.45 343.02 402.92 335.37 410.61C325.77 420.21 328.97 437.02 354.58 439.42C380.19 441.82 424.21 435.42 433.02 425.81C433.02 425.77 417.09 412.75 391.44 410.78Z" fill="#535461"/>
<path id="Vector_22" d="M387.4 475.399L605.9 407.369L613.1 424.179L389 501.009L387.4 475.399Z" fill="#6C63FF"/>
<path id="Vector_23" d="M452.23 582.651L609.9 427.381L618.7 440.181L468.23 597.051L452.23 582.651Z" fill="#6C63FF"/>
<path id="Vector_24" opacity="0.1" d="M653.58 529.85C648.584 531.142 643.712 532.872 639.02 535.02L629.46 508.31C634.477 506.123 639.644 504.295 644.92 502.84L653.58 529.85Z" fill="black"/>
<path id="Vector_25" d="M680.33 608.26L669.13 614.66L590.99 396.33L587.49 386.56L605.9 376.15L610.51 390.53L680.33 608.26Z" fill="#6C63FF"/>
<path id="Vector_26" opacity="0.1" d="M610.51 390.53L590.99 396.33L587.49 386.56L605.9 376.15L610.51 390.53Z" fill="black"/>
<path id="Vector_27" d="M491.44 407.37L601.09 369.75C601.09 369.75 620.3 372.15 613.09 388.16L502.65 420.97C502.65 420.97 485.85 422.57 491.44 407.37Z" fill="#535461"/>
<path id="Vector_28" opacity="0.1" d="M367.79 615.861C367.789 621.995 367.314 628.12 366.37 634.181C356.77 633.491 346.85 632.491 337.13 631.491C339.289 619.6 339.021 607.395 336.34 595.611C345.81 593.611 355.48 591.701 364.92 589.971C366.833 598.468 367.795 607.151 367.79 615.861V615.861Z" fill="black"/>
<path id="Vector_29" opacity="0.1" d="M393 585.381V606.651H372.19V588.651C379.39 587.401 386.39 586.291 393 585.381Z" fill="black"/>
<path id="Vector_30" d="M258.54 615.491C258.54 615.491 426.62 571.491 440.22 588.281C453.82 605.071 468.23 627.491 425.85 635.491C383.47 643.491 255.37 621.881 255.37 621.881L258.54 615.491Z" fill="#6C63FF"/>
<path id="Vector_31" opacity="0.1" d="M341.21 541.371L319.85 560.921C316.067 556.065 311.791 551.614 307.09 547.641L327.03 526.811C332.164 531.25 336.908 536.121 341.21 541.371V541.371Z" fill="black"/>
<path id="Vector_32" d="M252.94 606.66L378.59 475.4L382.6 505.81L259.34 618.66L252.94 606.66Z" fill="#6C63FF"/>
<path id="Vector_33" opacity="0.1" d="M251.34 628.27C258.415 628.27 264.15 622.535 264.15 615.46C264.15 608.386 258.415 602.65 251.34 602.65C244.265 602.65 238.53 608.386 238.53 615.46C238.53 622.535 244.265 628.27 251.34 628.27Z" fill="black"/>
<path id="Vector_34" opacity="0.1" d="M675.13 627.069C682.205 627.069 687.94 621.334 687.94 614.259C687.94 607.184 682.205 601.449 675.13 601.449C668.055 601.449 662.32 607.184 662.32 614.259C662.32 621.334 668.055 627.069 675.13 627.069Z" fill="black"/>
<path id="Vector_35" opacity="0.1" d="M448.22 628.271C462.364 628.271 473.83 616.805 473.83 602.661C473.83 588.517 462.364 577.051 448.22 577.051C434.076 577.051 422.61 588.517 422.61 602.661C422.61 616.805 434.076 628.271 448.22 628.271Z" fill="black"/>
<path id="Vector_36" d="M449.83 628.271C463.974 628.271 475.44 616.805 475.44 602.661C475.44 588.517 463.974 577.051 449.83 577.051C435.686 577.051 424.22 588.517 424.22 602.661C424.22 616.805 435.686 628.271 449.83 628.271Z" fill="#535461"/>
<path id="Vector_37" d="M442.992 600.736L442.984 600.742C439.977 602.991 439.362 607.253 441.611 610.26L461.937 637.441C464.186 640.448 468.448 641.063 471.455 638.814L471.463 638.808C474.471 636.559 475.086 632.297 472.836 629.29L452.51 602.109C450.261 599.102 446 598.487 442.992 600.736Z" fill="#6C63FF"/>
<path id="Vector_38" d="M565.48 246.99L563.1 277.1C562.826 280.914 562.877 284.745 563.25 288.55C563.56 291.92 563.25 297.82 559.95 306.82C555.713 318.317 553.523 330.468 553.48 342.72V376.99L530.48 372.99C530.48 372.99 531.48 324.99 527.48 316.99C523.48 308.99 530.48 237.99 530.48 237.99L565.48 246.99Z" fill="#DB8B8B"/>
<path id="Vector_39" opacity="0.05" d="M564.3 261.91L563.1 277.1C562.83 280.911 562.883 284.738 563.26 288.54C563.57 291.91 563.26 297.81 559.96 306.82C555.723 318.317 553.533 330.468 553.49 342.72V376.99L530.49 372.99C530.49 372.99 531.49 324.99 527.49 316.99C524.66 311.32 527.34 274.05 529.15 252.78C529.9 244.03 530.49 237.99 530.49 237.99L565.49 246.99L564.3 261.91Z" fill="black"/>
<path id="Vector_40" d="M451.5 476.99L442.85 526.19C441.759 532.758 440.086 539.217 437.85 545.49C432.78 559.35 436.02 578.78 438.48 589.38C439.57 594.06 440.48 597.02 440.48 597.02L414.48 611.02L406.48 605.02V601.02L405.48 512.02C399.48 498.02 401.48 477.02 405.48 469.02C406.618 466.391 407.417 463.629 407.86 460.8C409.86 450.08 410.48 435.02 410.48 435.02C410.48 435.02 426.48 408.02 445.48 426.02C452.48 432.65 455.14 441.32 455.7 449.62C456.68 463.83 451.5 476.99 451.5 476.99Z" fill="#DB8B8B"/>
<path id="Vector_41" opacity="0.1" d="M455.7 449.59C441.83 457.83 417.7 460.16 407.86 460.77C409.86 450.05 410.48 434.99 410.48 434.99C410.48 434.99 426.48 407.99 445.48 425.99C452.48 432.62 455.14 441.29 455.7 449.59Z" fill="black"/>
<path id="Vector_42" d="M489.48 424.99C478.846 430.653 468.797 437.352 459.48 444.99C443.48 457.99 403.48 458.99 403.48 458.99V443.99C404.48 425.99 387.48 405.99 364.48 349.99C349.79 314.23 353.86 293.99 358.72 283.99C361.48 278.34 364.48 275.99 364.48 275.99L489.48 299.99L493.95 313.39L503.48 341.99C503.48 341.99 468.48 343.99 462.48 346.99C456.48 349.99 460.48 376.99 460.48 376.99C454.48 404.99 489.48 424.99 489.48 424.99Z" fill="#ABB1D1"/>
<path id="Vector_43" opacity="0.1" d="M565.48 246.99L564.3 261.91C546.9 266.91 534.48 250.99 534.48 250.99C532.665 251.477 530.882 252.075 529.14 252.78C529.89 244.03 530.48 237.99 530.48 237.99L565.48 246.99Z" fill="black"/>
<path id="Vector_44" opacity="0.1" d="M493.95 313.39C493.48 318.06 493.48 320.99 493.48 320.99C493.48 320.99 470.48 339.99 431.48 310.99C392.48 281.99 357.48 289.99 357.48 289.99C357.48 289.99 357.89 287.67 358.72 283.99C361.48 278.34 364.48 275.99 364.48 275.99L489.48 299.99L493.95 313.39Z" fill="black"/>
<path id="Vector_45" d="M578.96 207.939C576.35 228.289 575.48 253.939 575.48 253.939C552.48 271.939 534.48 248.939 534.48 248.939C512.76 254.769 502.55 273.779 497.74 290.369C495.164 299.343 493.732 308.607 493.48 317.939C493.48 317.939 487.4 322.939 476.2 323.939C465.61 324.829 450.43 322.069 431.48 307.939C392.48 278.939 357.48 286.939 357.48 286.939C357.48 286.939 364.48 246.939 380.48 234.939C396.48 222.939 408.48 207.939 428.48 161.939C448.48 115.939 489.48 126.939 489.48 126.939C489.48 126.939 491.48 117.939 528.48 126.939C537.492 129.301 545.834 133.72 552.85 139.849C572.64 156.489 582.24 182.299 578.96 207.939Z" fill="white"/>
<path id="Vector_46" d="M541.85 149.491C541.8 150.821 541.69 152.301 541.51 153.951C539.51 171.951 537.51 169.951 515.51 173.951C501.83 176.441 494.72 165.011 491.3 156.011C490.062 152.751 489.128 149.383 488.51 145.951L536.51 137.951C536.51 137.951 542.26 136.341 541.85 149.491Z" fill="#DB8B8B"/>
<path id="Vector_47" opacity="0.05" d="M497.74 290.42C495.164 299.394 493.732 308.658 493.48 317.99C493.48 317.99 487.4 322.99 476.2 323.99C475.884 323.353 475.643 322.682 475.48 321.99C473.48 312.99 458.48 296.99 458.48 296.99C448.48 287.99 446.48 271.99 446.48 271.99L429.98 223.49L424.48 218.99C424.48 218.99 447.48 200.99 467.48 215.99C487.48 230.99 481.48 262.99 481.48 262.99L485.48 273.99C489.63 277.49 493.85 283.66 497.74 290.42Z" fill="black"/>
<path id="Vector_48" d="M427.48 217.99L449.48 270.99C449.48 270.99 451.48 286.99 461.48 295.99C461.48 295.99 476.48 311.99 478.48 320.99C480.48 329.99 508.48 353.99 508.48 353.99C508.48 353.99 534.48 377.99 536.48 386.99C536.48 386.99 560.48 393.99 557.48 407.99C557.48 407.99 575.48 389.99 557.48 372.99C539.48 355.99 515.48 320.99 515.48 320.99C515.48 320.99 501.48 283.99 488.48 272.99L484.48 261.99C484.48 261.99 490.48 229.99 470.48 214.99C450.48 199.99 427.48 217.99 427.48 217.99Z" fill="#DB8B8B"/>
<path id="Vector_49" opacity="0.1" d="M440.48 596.99L414.48 610.99L406.48 604.99V600.99C415.464 600.352 424.193 597.718 432.03 593.28C434.43 591.92 436.69 590.58 438.5 589.4C439.55 594.03 440.48 596.99 440.48 596.99Z" fill="black"/>
<path id="Vector_50" opacity="0.1" d="M470.48 175.99L484.48 230.99C484.48 230.99 441.48 237.99 432.48 230.99C423.48 223.99 406.48 221.99 406.48 221.99C406.48 221.99 424.48 169.99 434.48 163.99C444.48 157.99 470.48 175.99 470.48 175.99Z" fill="black"/>
<path id="Vector_51" d="M470.48 173.99L484.48 228.99C484.48 228.99 441.48 235.99 432.48 228.99C423.48 221.99 406.48 219.99 406.48 219.99C406.48 219.99 424.48 167.99 434.48 161.99C444.48 155.99 470.48 173.99 470.48 173.99Z" fill="white"/>
<path id="Vector_52" opacity="0.1" d="M541.85 148.491C539.049 152.357 535.487 155.609 531.382 158.048C527.278 160.486 522.718 162.059 517.983 162.67C513.248 163.281 508.438 162.916 503.85 161.599C499.261 160.282 494.99 158.04 491.3 155.011C490.062 151.751 489.128 148.383 488.51 144.951L536.51 136.951C536.51 136.951 542.26 135.341 541.85 148.491Z" fill="black"/>
<path id="Vector_53" d="M548.48 126.99C548.48 136.273 544.792 145.175 538.229 151.739C531.665 158.303 522.763 161.99 513.48 161.99C504.197 161.99 495.295 158.303 488.731 151.739C482.167 145.175 478.48 136.273 478.48 126.99C478.48 126.41 478.48 125.83 478.48 125.25C478.711 115.968 482.62 107.157 489.346 100.756C496.073 94.3557 505.067 90.8895 514.35 91.1202C523.633 91.3509 532.443 95.2597 538.844 101.987C545.244 108.714 548.711 117.708 548.48 126.99V126.99Z" fill="#DB8B8B"/>
<path id="Vector_54" opacity="0.1" d="M548.48 126.99C548.483 130.216 548.039 133.426 547.16 136.53C544.454 137.12 541.633 136.861 539.08 135.79C535.34 134.32 532.13 131.79 528.54 129.97C518.43 124.85 506.4 125.86 495.2 127.55C489.64 128.39 483.33 129.17 478.96 125.63C478.809 125.512 478.666 125.385 478.53 125.25C478.761 115.968 482.669 107.157 489.396 100.756C496.123 94.3557 505.117 90.8895 514.4 91.1202C523.682 91.3509 532.493 95.2597 538.894 101.987C545.294 108.714 548.761 117.708 548.53 126.99H548.48Z" fill="black"/>
<path id="Vector_55" opacity="0.05" d="M384.98 234.49C384.98 234.49 410.98 241.49 418.98 259.49C426.98 277.49 448.62 280.78 448.62 280.78" fill="black"/>
<path id="Vector_56" d="M482.98 630.49H422.98V649.49H482.98V630.49Z" fill="#6C63FF"/>
<path id="Vector_57" opacity="0.1" d="M482.98 630.49H422.98V649.49H482.98V630.49Z" fill="black"/>
<path id="Vector_58" d="M431.99 595.23C437.36 592.23 442.07 589.23 442.48 587.99C442.48 587.99 456.03 602.29 468.1 606.73C472.158 608.23 476.044 610.161 479.69 612.49C484.47 615.49 491.29 619.02 497.48 619.02C497.48 619.02 511.48 631.02 484.48 633.02C457.48 635.02 394.48 628.02 394.48 628.02L398.48 603.02C410.167 603.706 421.804 601.001 431.99 595.23Z" fill="#ABB1D1"/>
</g>
<g id="hat">
<path id="Vector_59" d="M453.16 105.341C455.29 112.021 465.52 112.231 470.77 117.151C473.5 119.711 474.77 123.491 477.77 125.771C481.94 128.951 487.96 128.251 493.27 127.491C503.96 125.971 515.44 125.061 525.08 129.671C528.5 131.301 531.57 133.581 535.14 134.911C538.71 136.241 543.14 136.401 546.04 134.041C548.36 132.151 549.21 129.041 551.31 126.961C552.94 125.321 555.21 124.401 557.07 122.961C561.15 119.881 562.91 114.861 564.07 110.061C566.47 100.181 567.16 89.5308 563.07 80.1608C558.98 70.7908 549.14 63.1608 538.4 63.6508C535.11 63.8008 531.9 64.6508 528.62 65.0108C520.07 65.8808 511.62 63.0108 503.04 62.5208C500.551 62.2179 498.026 62.5624 495.71 63.5208C493.963 64.4916 492.457 65.8413 491.3 67.4708C487.372 72.6162 484.682 78.5976 483.44 84.9508C482.44 89.7408 482.39 94.0808 476.52 94.8208C469.85 95.7008 448.65 91.2108 453.16 105.341Z" fill="#472727"/>
</g>
</g>
<defs>
<linearGradient id="paint0_linear" x1="762" y1="37.5" x2="111.5" y2="710" gradientUnits="userSpaceOnUse">
<stop stop-color="#63FFEC"/>
<stop offset="1" stop-color="#ABB1D1"/>
</linearGradient>
<clipPath id="clip0">
<rect width="1057.7" height="784.98" fill="white"/>
</clipPath>
</defs>
</svg>
