<svg width="893" height="541" viewBox="0 0 893 541" fill="none" xmlns="http://www.w3.org/2000/svg">
<g id="undraw_season_change_f99v 1" clip-path="url(#clip0)">
<g id="clouds">
<path id="Vector" d="M771.614 136.178C778.242 136.178 783.614 130.805 783.614 124.178C783.614 117.55 778.242 112.178 771.614 112.178C764.987 112.178 759.614 117.55 759.614 124.178C759.614 130.805 764.987 136.178 771.614 136.178Z" fill="#E6E6E6"/>
<path id="Vector_2" d="M807.847 105.878C813.366 105.878 817.839 101.405 817.839 95.8863C817.839 90.368 813.366 85.8945 807.847 85.8945C802.329 85.8945 797.855 90.368 797.855 95.8863C797.855 101.405 802.329 105.878 807.847 105.878Z" fill="#E6E6E6"/>
<path id="Vector_3" d="M856.614 162.178C863.242 162.178 868.614 156.805 868.614 150.178C868.614 143.55 863.242 138.178 856.614 138.178C849.987 138.178 844.614 143.55 844.614 150.178C844.614 156.805 849.987 162.178 856.614 162.178Z" fill="#E6E6E6"/>
<path id="Vector_4" d="M765.614 217.178C772.242 217.178 777.614 211.805 777.614 205.178C777.614 198.55 772.242 193.178 765.614 193.178C758.987 193.178 753.614 198.55 753.614 205.178C753.614 211.805 758.987 217.178 765.614 217.178Z" fill="#E6E6E6"/>
<path id="Vector_5" d="M856.614 286.178C863.242 286.178 868.614 280.805 868.614 274.178C868.614 267.55 863.242 262.178 856.614 262.178C849.987 262.178 844.614 267.55 844.614 274.178C844.614 280.805 849.987 286.178 856.614 286.178Z" fill="#E6E6E6"/>
<path id="Vector_6" d="M835.614 111.178C838.376 111.178 840.614 108.939 840.614 106.178C840.614 103.416 838.376 101.178 835.614 101.178C832.853 101.178 830.614 103.416 830.614 106.178C830.614 108.939 832.853 111.178 835.614 111.178Z" fill="#E6E6E6"/>
<path id="Vector_7" d="M818.614 235.178C821.376 235.178 823.614 232.939 823.614 230.178C823.614 227.416 821.376 225.178 818.614 225.178C815.853 225.178 813.614 227.416 813.614 230.178C813.614 232.939 815.853 235.178 818.614 235.178Z" fill="#E6E6E6"/>
<path id="Vector_8" d="M822.614 230.178C825.376 230.178 827.614 227.939 827.614 225.178C827.614 222.416 825.376 220.178 822.614 220.178C819.853 220.178 817.614 222.416 817.614 225.178C817.614 227.939 819.853 230.178 822.614 230.178Z" fill="#E6E6E6"/>
<path id="Vector_9" d="M825.614 225.178C828.376 225.178 830.614 222.939 830.614 220.178C830.614 217.416 828.376 215.178 825.614 215.178C822.853 215.178 820.614 217.416 820.614 220.178C820.614 222.939 822.853 225.178 825.614 225.178Z" fill="#E6E6E6"/>
<path id="Vector_10" d="M786.614 172.178C789.376 172.178 791.614 169.939 791.614 167.178C791.614 164.416 789.376 162.178 786.614 162.178C783.853 162.178 781.614 164.416 781.614 167.178C781.614 169.939 783.853 172.178 786.614 172.178Z" fill="#E6E6E6"/>
</g>
<g id="clock">
<path id="Vector_11" d="M73.8965 117.33C99.3016 117.33 119.896 96.7352 119.896 71.3301C119.896 45.925 99.3016 25.3301 73.8965 25.3301C48.4914 25.3301 27.8965 45.925 27.8965 71.3301C27.8965 96.7352 48.4914 117.33 73.8965 117.33Z" fill="#FF6584"/>
<path id="Vector_12" d="M444.003 540.803C689.219 540.803 888.006 532.744 888.006 522.803C888.006 512.862 689.219 504.803 444.003 504.803C198.787 504.803 0 512.862 0 522.803C0 532.744 198.787 540.803 444.003 540.803Z" fill="#E6E6E6"/>
<path id="Vector_13" d="M113 297.219C175.408 297.219 226 246.627 226 184.219C226 121.811 175.408 71.2188 113 71.2188C50.5918 71.2188 0 121.811 0 184.219C0 246.627 50.5918 297.219 113 297.219Z" fill="#6C63FF"/>
<path id="Vector_14" d="M123.892 524.581H100.747L111.298 167.201L123.892 524.581Z" fill="#3F3D56"/>
<path id="Vector_15" d="M113.34 234.933L138.187 200.557L113 243.442L110.277 238.677L113.34 234.933Z" fill="#3F3D56"/>
<path id="Vector_16" d="M110.617 269.649L85.7715 235.273L110.958 278.158L113.681 273.393L110.617 269.649Z" fill="#3F3D56"/>
<path id="Vector_17" d="M827.505 524.956H804.361L814.912 167.576L827.505 524.956Z" fill="#3F3D56"/>
<path id="Vector_18" d="M816.954 235.31L841.801 200.934L816.614 243.819L813.891 239.054L816.954 235.31Z" fill="#3F3D56"/>
<path id="Vector_19" d="M814.231 270.026L789.385 235.65L814.572 278.535L817.295 273.77L814.231 270.026Z" fill="#3F3D56"/>
<path id="Vector_20" d="M459.055 524.898C575.313 524.898 669.559 430.652 669.559 314.394C669.559 198.136 575.313 103.891 459.055 103.891C342.797 103.891 248.552 198.136 248.552 314.394C248.552 430.652 342.797 524.898 459.055 524.898Z" fill="#3F3D56"/>
<path id="Vector_21" d="M459.055 507.472C565.689 507.472 652.133 421.028 652.133 314.394C652.133 207.76 565.689 121.316 459.055 121.316C352.421 121.316 265.978 207.76 265.978 314.394C265.978 421.028 352.421 507.472 459.055 507.472Z" fill="white"/>
<path id="Vector_22" d="M463.935 131.074H452.782V151.985H463.935V131.074Z" fill="#3F3D56"/>
<path id="Vector_23" d="M463.935 478.195H452.782V499.106H463.935V478.195Z" fill="#3F3D56"/>
<path id="Vector_24" d="M295.253 320.666V309.514H274.342V320.666H295.253Z" fill="#3F3D56"/>
<path id="Vector_25" d="M642.375 320.666V309.514H621.464V320.666H642.375Z" fill="#3F3D56"/>
<path id="Vector_26" d="M486.24 53.0059H431.871V115.739H486.24V53.0059Z" fill="#3F3D56"/>
<path id="Vector_27" d="M459.055 70.4317C493.702 70.4317 521.788 62.6299 521.788 53.0059C521.788 43.3819 493.702 35.5801 459.055 35.5801C424.409 35.5801 396.322 43.3819 396.322 53.0059C396.322 62.6299 424.409 70.4317 459.055 70.4317Z" fill="#3F3D56"/>
<path id="Vector_28" d="M888.12 42.1522C887.522 31.581 883.189 21.5658 875.894 13.8921C868.598 6.21846 858.815 1.38512 848.288 0.253866C837.76 -0.877391 827.173 1.76698 818.414 7.71549C809.655 13.664 803.293 22.53 800.463 32.7327C799.922 32.7133 799.381 32.6916 798.835 32.6916C789.183 32.6934 779.79 35.8203 772.063 41.6046C764.336 47.389 758.69 55.5197 755.968 64.7805C749.572 61.9702 742.425 61.3605 735.645 63.0468C728.866 64.7332 722.837 68.6204 718.503 74.0997H857.865C861.931 74.1112 865.957 73.3022 869.703 71.7211C873.448 70.14 876.837 67.8193 879.664 64.898C882.492 61.9767 884.701 58.5149 886.159 54.7197C887.618 50.9246 888.295 46.8742 888.151 42.8111C888.142 42.5918 888.132 42.3721 888.12 42.1522Z" fill="#E6E6E6"/>
<path id="Vector_29" d="M837.594 505.566C837.598 505.436 837.614 505.309 837.614 505.178C837.617 503.167 837.113 501.188 836.151 499.423C835.188 497.658 833.796 496.163 832.104 495.077C830.412 493.991 828.474 493.348 826.468 493.207C824.462 493.067 822.453 493.434 820.627 494.273C818.912 492.295 816.596 490.933 814.033 490.396C811.47 489.86 808.803 490.179 806.439 491.304C804.074 492.429 802.144 494.298 800.944 496.625C799.744 498.952 799.341 501.609 799.795 504.187C799.734 504.186 799.675 504.178 799.614 504.178C797.703 504.175 795.82 504.628 794.12 505.5C792.42 506.371 790.953 507.636 789.84 509.189C788.727 510.742 788.002 512.538 787.723 514.428C787.444 516.318 787.621 518.247 788.238 520.055C788.856 521.863 789.895 523.497 791.272 524.822C792.648 526.147 794.32 527.125 796.15 527.673C797.98 528.222 799.915 528.325 801.793 527.975C803.671 527.625 805.438 526.832 806.948 525.661C807.9 527.517 809.32 529.092 811.068 530.231C812.815 531.371 814.829 532.034 816.911 532.157C818.993 532.28 821.072 531.858 822.941 530.932C824.81 530.006 826.405 528.609 827.57 526.879C828.998 527.917 830.637 528.628 832.372 528.96C834.106 529.291 835.892 529.236 837.603 528.797C839.313 528.358 840.905 527.547 842.266 526.422C843.627 525.296 844.722 523.884 845.473 522.286C846.225 520.688 846.614 518.944 846.614 517.178C846.613 515.413 846.222 513.669 845.47 512.071C844.717 510.474 843.621 509.063 842.259 507.938C840.898 506.814 839.305 506.004 837.594 505.566Z" fill="#E6E6E6"/>
<path id="Vector_30" d="M867.614 231.178C870.376 231.178 872.614 228.939 872.614 226.178C872.614 223.416 870.376 221.178 867.614 221.178C864.853 221.178 862.614 223.416 862.614 226.178C862.614 228.939 864.853 231.178 867.614 231.178Z" fill="#E6E6E6"/>
<path id="Vector_31" d="M813.614 267.178C816.376 267.178 818.614 264.939 818.614 262.178C818.614 259.416 816.376 257.178 813.614 257.178C810.853 257.178 808.614 259.416 808.614 262.178C808.614 264.939 810.853 267.178 813.614 267.178Z" fill="#E6E6E6"/>
<path id="Vector_32" d="M887.614 323.178C890.376 323.178 892.614 320.939 892.614 318.178C892.614 315.416 890.376 313.178 887.614 313.178C884.853 313.178 882.614 315.416 882.614 318.178C882.614 320.939 884.853 323.178 887.614 323.178Z" fill="#E6E6E6"/>
<path id="Vector_33" d="M780.614 326.178C783.376 326.178 785.614 323.939 785.614 321.178C785.614 318.416 783.376 316.178 780.614 316.178C777.853 316.178 775.614 318.416 775.614 321.178C775.614 323.939 777.853 326.178 780.614 326.178Z" fill="#E6E6E6"/>
<path id="Vector_34" d="M809.614 262.178C812.376 262.178 814.614 259.939 814.614 257.178C814.614 254.416 812.376 252.178 809.614 252.178C806.853 252.178 804.614 254.416 804.614 257.178C804.614 259.939 806.853 262.178 809.614 262.178Z" fill="#E6E6E6"/>
<path id="Vector_35" d="M804.614 254.178C807.376 254.178 809.614 251.939 809.614 249.178C809.614 246.416 807.376 244.178 804.614 244.178C801.853 244.178 799.614 246.416 799.614 249.178C799.614 251.939 801.853 254.178 804.614 254.178Z" fill="#E6E6E6"/>
</g>
<g id="clockneedel">
<path id="Vector_36" d="M464 352C486.644 352 505 333.42 505 310.5C505 287.58 486.644 269 464 269C441.356 269 423 287.58 423 310.5C423 333.42 441.356 352 464 352Z" fill="#3F3D56"/>
<path id="Vector_37" d="M459.438 329.684L471.101 308.954L583.309 386.713L459.438 329.684Z" fill="#3F3D56"/>
</g>
</g>
<defs>
<clipPath id="clip0">
<rect width="892.614" height="540.802" fill="white"/>
</clipPath>
</defs>
</svg>
